<svg width="160" height="32" viewBox="0 0 160 32" fill="none" xmlns="http://www.w3.org/2000/svg">
<g clip-path="url(#clip0_1768_16)">
<path fill-rule="evenodd" clip-rule="evenodd" d="M20.2421 9.34824C18.9396 8.4692 17.4082 8 15.8416 8V0C18.9747 0 22.0375 0.938384 24.6427 2.69649C27.2478 4.45458 29.2783 6.95345 30.4773 9.87704C31.6763 12.8006 31.99 16.0178 31.3788 19.1214C30.7675 22.2251 29.2588 25.0761 27.0432 27.3137C24.8278 29.5514 22.0051 31.0752 18.9321 31.6926C15.8592 32.3099 12.6739 31.993 9.77925 30.7821C6.88459 29.571 4.41048 27.5203 2.66979 24.8891C0.929093 22.2579 0 19.1645 0 16H7.92079C7.92079 17.5822 8.38535 19.129 9.25568 20.4446C10.126 21.7602 11.3631 22.7855 12.8105 23.391C14.2577 23.9966 15.8504 24.155 17.3869 23.8462C18.9233 23.5376 20.3347 22.7757 21.4425 21.6569C22.5502 20.538 23.3046 19.1126 23.6101 17.5607C23.9158 16.0089 23.759 14.4003 23.1594 12.9386C22.5599 11.4767 21.5447 10.2273 20.2421 9.34824Z" fill="#441C0C"/>
<path fill-rule="evenodd" clip-rule="evenodd" d="M7.92079 4.22794e-06C7.92079 1.05058 7.71592 2.09087 7.31786 3.06148C6.9198 4.03207 6.33636 4.91399 5.60084 5.65686C4.86533 6.39973 3.99215 6.989 3.03116 7.39104C2.07016 7.79308 1.04017 8 3.46226e-07 8L0 16C2.08034 16 4.14032 15.5862 6.06232 14.7821C7.98431 13.978 9.73069 12.7994 11.2017 11.3137C12.6727 9.828 13.8396 8.06416 14.6357 6.12294C15.4318 4.18172 15.8416 2.10115 15.8416 0L7.92079 4.22794e-06Z" fill="#441C0C"/>
<path d="M99.5004 11.562H95.6572V23.8918H99.5004V11.562Z" fill="#441C0C"/>
<path d="M96.0846 9.25328C96.4861 9.6592 96.9883 9.86216 97.5911 9.86216C98.1939 9.86216 98.6881 9.6592 99.0731 9.25328C99.4588 8.83048 99.6513 8.32304 99.6513 7.73108C99.6513 7.12221 99.4588 6.61479 99.0731 6.20889C98.6881 5.80295 98.1939 5.6 97.5911 5.6C96.9883 5.6 96.4861 5.80295 96.0846 6.20889C95.6988 6.61479 95.5063 7.12221 95.5063 7.73108C95.5063 8.32304 95.6988 8.83048 96.0846 9.25328Z" fill="#441C0C"/>
<path d="M40.5195 23.8918V5.98055H44.4632V20.3908H52.3255V23.8918H40.5195Z" fill="#441C0C"/>
<path fill-rule="evenodd" clip-rule="evenodd" d="M59.4277 24.1709C58.1718 24.1709 57.0331 23.8918 56.0115 23.3337C55.0068 22.7586 54.2114 21.9806 53.6252 20.9996C53.0392 20.0186 52.7461 18.9193 52.7461 17.7015C52.7461 16.4838 53.0392 15.3929 53.6252 14.4288C54.2114 13.4647 55.0068 12.7036 56.0115 12.1455C57.0163 11.5704 58.155 11.2829 59.4277 11.2829C60.7004 11.2829 61.8391 11.562 62.8438 12.1201C63.8486 12.6782 64.6441 13.4478 65.2301 14.4288C65.8163 15.3929 66.1093 16.4838 66.1093 17.7015C66.1093 18.9193 65.8163 20.0186 65.2301 20.9996C64.6441 21.9806 63.8486 22.7586 62.8438 23.3337C61.8391 23.8918 60.7004 24.1709 59.4277 24.1709ZM59.4277 20.6445C59.9803 20.6445 60.4659 20.5261 60.8846 20.2893C61.3032 20.0356 61.6214 19.6889 61.8391 19.2491C62.0735 18.7925 62.1908 18.2766 62.1908 17.7015C62.1908 17.1265 62.0735 16.6275 61.8391 16.2047C61.6046 15.765 61.2781 15.4267 60.8594 15.1899C60.4575 14.9362 59.9803 14.8094 59.4277 14.8094C58.8918 14.8094 58.4146 14.9362 57.9959 15.1899C57.5773 15.4267 57.2507 15.765 57.0163 16.2047C56.7818 16.6445 56.6647 17.1518 56.6647 17.7269C56.6647 18.285 56.7818 18.7925 57.0163 19.2491C57.2507 19.6889 57.5773 20.0356 57.9959 20.2893C58.4146 20.5261 58.8918 20.6445 59.4277 20.6445Z" fill="#441C0C"/>
<path fill-rule="evenodd" clip-rule="evenodd" d="M69.1528 28.7122C70.1743 29.1857 71.3549 29.4225 72.6946 29.4225C74.0007 29.4225 75.1646 29.1603 76.1861 28.636C77.2076 28.1117 78.0114 27.3845 78.5975 26.4542C79.1836 25.524 79.477 24.4246 79.477 23.1561V11.562H75.7088V12.3904C75.4285 12.1522 75.1103 11.9522 74.7543 11.7903C74.1012 11.469 73.356 11.3082 72.5188 11.3082C71.3968 11.3082 70.4004 11.5789 69.5296 12.1201C68.6587 12.6444 67.9722 13.3717 67.4698 14.3019C66.9674 15.2153 66.7163 16.247 66.7163 17.3971C66.7163 18.5303 66.9674 19.562 67.4698 20.4922C67.9722 21.4225 68.6587 22.1582 69.5296 22.6994C70.4004 23.2406 71.3968 23.5113 72.5188 23.5113C73.3393 23.5113 74.0845 23.3506 74.7543 23.0293C75.0788 22.8736 75.3718 22.6902 75.6335 22.4789V23.2576C75.6335 24.1202 75.3572 24.7882 74.8045 25.2618C74.2687 25.7354 73.5235 25.9722 72.569 25.9722C71.7987 25.9722 71.1372 25.8369 70.5846 25.5662C70.0487 25.2957 69.563 24.8982 69.1276 24.3738L66.7665 26.7586C67.3526 27.6043 68.1481 28.2555 69.1528 28.7122ZM74.6287 19.7058C74.2435 19.9426 73.7831 20.061 73.2472 20.061C72.7113 20.061 72.2424 19.9426 71.8405 19.7058C71.4553 19.469 71.1539 19.1476 70.9363 18.7417C70.7185 18.3189 70.6097 17.8706 70.6097 17.3971C70.6097 16.8897 70.7185 16.433 70.9363 16.0271C71.1539 15.6212 71.4637 15.2998 71.8656 15.063C72.2675 14.8262 72.728 14.7078 73.2472 14.7078C73.7831 14.7078 74.2435 14.8262 74.6287 15.063C75.0306 15.2998 75.332 15.6212 75.533 16.0271C75.7507 16.433 75.8595 16.8897 75.8595 17.3971C75.8595 17.9045 75.7507 18.3611 75.533 18.767C75.332 19.1561 75.0306 19.469 74.6287 19.7058Z" fill="#441C0C"/>
<path fill-rule="evenodd" clip-rule="evenodd" d="M87.5653 24.1709C86.309 24.1709 85.17 23.8918 84.149 23.3337C83.1439 22.7586 82.3486 21.9806 81.7625 20.9996C81.1764 20.0186 80.8833 18.9193 80.8833 17.7015C80.8833 16.4838 81.1764 15.3929 81.7625 14.4288C82.3486 13.4647 83.1439 12.7036 84.149 12.1455C85.1534 11.5704 86.2924 11.2829 87.5653 11.2829C88.8374 11.2829 89.9764 11.562 90.9807 12.1201C91.9859 12.6782 92.7811 13.4478 93.3673 14.4288C93.9534 15.3929 94.2465 16.4838 94.2465 17.7015C94.2465 18.9193 93.9534 20.0186 93.3673 20.9996C92.7811 21.9806 91.9859 22.7586 90.9807 23.3337C89.9764 23.8918 88.8374 24.1709 87.5653 24.1709ZM87.5653 20.6445C88.1174 20.6445 88.6029 20.5261 89.0219 20.2893C89.4401 20.0356 89.7586 19.6889 89.9764 19.2491C90.2108 18.7925 90.3281 18.2766 90.3281 17.7015C90.3281 17.1265 90.2108 16.6275 89.9764 16.2047C89.7419 15.765 89.4156 15.4267 88.9966 15.1899C88.595 14.9362 88.1174 14.8094 87.5653 14.8094C87.029 14.8094 86.5514 14.9362 86.1332 15.1899C85.7142 15.4267 85.3879 15.765 85.1534 16.2047C84.9189 16.6445 84.8017 17.1518 84.8017 17.7269C84.8017 18.285 84.9189 18.7925 85.1534 19.2491C85.3879 19.6889 85.7142 20.0356 86.1332 20.2893C86.5514 20.5261 87.029 20.6445 87.5653 20.6445Z" fill="#441C0C"/>
<path fill-rule="evenodd" clip-rule="evenodd" d="M108.737 24.1455C107.918 24.1455 107.164 23.9849 106.477 23.6635C106.116 23.4944 105.789 23.2925 105.498 23.0578V29.0927H101.705V11.562H105.548V12.413C105.827 12.1826 106.136 11.9835 106.477 11.8157C107.164 11.4774 107.918 11.3082 108.737 11.3082C109.893 11.3082 110.915 11.5874 111.802 12.1455C112.707 12.7036 113.41 13.4647 113.912 14.4288C114.432 15.3929 114.691 16.4922 114.691 17.7269C114.691 18.9616 114.432 20.061 113.912 21.025C113.41 21.9891 112.707 22.7502 111.802 23.3083C110.915 23.8665 109.893 24.1455 108.737 24.1455ZM108.035 20.6445C108.587 20.6445 109.065 20.5176 109.466 20.2639C109.885 20.0102 110.212 19.6634 110.446 19.2238C110.68 18.784 110.798 18.285 110.798 17.7269C110.798 17.1518 110.68 16.6445 110.446 16.2047C110.212 15.765 109.885 15.4267 109.466 15.1899C109.065 14.9362 108.596 14.8094 108.059 14.8094C107.524 14.8094 107.046 14.9362 106.628 15.1899C106.226 15.4267 105.908 15.765 105.674 16.2047C105.439 16.6445 105.322 17.1518 105.322 17.7269C105.322 18.285 105.431 18.784 105.648 19.2238C105.883 19.6634 106.209 20.0102 106.628 20.2639C107.046 20.5176 107.515 20.6445 108.035 20.6445Z" fill="#441C0C"/>
<path d="M118.452 23.9172C119.156 24.1033 119.867 24.1962 120.587 24.1962C122.111 24.1962 123.316 23.8411 124.204 23.1307C125.108 22.4204 125.56 21.4648 125.56 20.2639C125.56 19.4859 125.419 18.8601 125.134 18.3866C124.849 17.8961 124.481 17.507 124.029 17.2195C123.576 16.932 123.099 16.7036 122.596 16.5345C122.094 16.3654 121.617 16.2216 121.165 16.1032C120.713 15.9848 120.345 15.8495 120.059 15.6973C119.775 15.545 119.633 15.3421 119.633 15.0884C119.633 14.8516 119.742 14.674 119.959 14.5556C120.177 14.4203 120.503 14.3527 120.939 14.3527C121.391 14.3527 121.851 14.4457 122.32 14.6318C122.806 14.8178 123.241 15.1392 123.626 15.5958L125.812 13.3633C125.259 12.6529 124.539 12.1201 123.652 11.765C122.781 11.3929 121.827 11.2068 120.788 11.2068C119.8 11.2068 118.938 11.3759 118.201 11.7142C117.464 12.0525 116.894 12.5176 116.493 13.1095C116.091 13.6846 115.89 14.3696 115.89 15.1646C115.89 15.9087 116.033 16.5261 116.317 17.0166C116.601 17.4901 116.97 17.8622 117.422 18.1328C117.874 18.4034 118.352 18.6149 118.854 18.767C119.356 18.9193 119.834 19.063 120.286 19.1984C120.737 19.3168 121.107 19.4606 121.391 19.6297C121.693 19.7819 121.843 20.0102 121.843 20.3146C121.843 20.5514 121.717 20.7374 121.466 20.8728C121.232 21.0081 120.889 21.0758 120.436 21.0758C119.783 21.0758 119.18 20.9574 118.628 20.7206C118.075 20.4669 117.598 20.1202 117.196 19.6804L115.011 21.913C115.43 22.3696 115.932 22.7756 116.518 23.1307C117.121 23.469 117.766 23.7311 118.452 23.9172Z" fill="#441C0C"/>
<path d="M132.569 24.1709C131.447 24.1709 130.451 23.9426 129.58 23.4859C128.725 23.0123 128.056 22.3696 127.571 21.5578C127.084 20.729 126.842 19.7819 126.842 18.7163V11.562H130.685V18.6656C130.685 19.0884 130.752 19.4521 130.886 19.7565C131.037 20.061 131.254 20.2978 131.539 20.4669C131.824 20.636 132.167 20.7206 132.569 20.7206C133.138 20.7206 133.59 20.543 133.925 20.1878C134.26 19.8157 134.428 19.3083 134.428 18.6656V11.562H138.271V18.691C138.271 19.7734 138.028 20.729 137.542 21.5578C137.056 22.3696 136.387 23.0123 135.532 23.4859C134.679 23.9426 133.691 24.1709 132.569 24.1709Z" fill="#441C0C"/>
<path d="M144.025 11.562H140.182V23.8918H144.025V16.6867C144.025 16.2639 144.109 15.9087 144.276 15.6212C144.46 15.3337 144.704 15.1138 145.005 14.9616C145.306 14.7924 145.649 14.7078 146.034 14.7078C146.587 14.7078 147.047 14.8854 147.416 15.2406C147.801 15.5789 147.994 16.061 147.994 16.6867V23.8918H151.837V16.6867C151.837 16.2639 151.921 15.9087 152.088 15.6212C152.273 15.3337 152.515 15.1138 152.817 14.9616C153.118 14.7924 153.462 14.7078 153.847 14.7078C154.399 14.7078 154.86 14.8854 155.228 15.2406C155.613 15.5789 155.805 16.061 155.805 16.6867V23.8918H159.649V16.2554C159.649 15.2238 159.432 14.3442 158.996 13.617C158.577 12.8727 157.999 12.3062 157.263 11.9172C156.543 11.5112 155.714 11.3082 154.776 11.3082C153.821 11.3082 152.959 11.5197 152.189 11.9426C151.688 12.2119 151.251 12.5596 150.876 12.9855C150.527 12.54 150.102 12.1754 149.601 11.8918C148.932 11.5028 148.17 11.3082 147.316 11.3082C146.411 11.3082 145.599 11.5028 144.879 11.8918C144.566 12.0536 144.281 12.2474 144.025 12.4733V11.562Z" fill="#441C0C"/>
</g>
<defs>
<clipPath id="clip0_1768_16">
<rect width="160" height="32" fill="white"/>
</clipPath>
</defs>
</svg>
